<mxfile host="app.diagrams.net" modified="2023-06-25T21:35:30.319Z" agent="Mozilla/5.0 (X11; Linux x86_64; rv:109.0) Gecko/20100101 Firefox/114.0" etag="68rDQoGw8mPIg_WuG-x1" version="21.5.0" type="device">
  <diagram name="Page-1" id="7j1GcLg8Cb4jewwEMnio">
    <mxGraphModel dx="819" dy="435" grid="1" gridSize="5" guides="1" tooltips="1" connect="1" arrows="1" fold="1" page="1" pageScale="1" pageWidth="850" pageHeight="1100" math="1" shadow="0">
      <root>
        <mxCell id="0" />
        <mxCell id="1" parent="0" />
        <mxCell id="ZBI6mGZKw_wungwZ691_-1" value="&lt;div&gt;&lt;i&gt;Address&lt;/i&gt;&lt;/div&gt;&lt;div&gt;&lt;i&gt;embeddings&lt;br&gt;&lt;/i&gt;&lt;/div&gt;" style="rounded=1;whiteSpace=wrap;html=1;fontSize=10;glass=0;fillColor=#ffcc99;strokeColor=#36393d;" parent="1" vertex="1">
          <mxGeometry x="45" y="90" width="60" height="30" as="geometry" />
        </mxCell>
        <mxCell id="ZBI6mGZKw_wungwZ691_-4" value="&lt;font style=&quot;font-size: 10px;&quot;&gt;Bidirectional GRU&lt;/font&gt;" style="rounded=0;whiteSpace=wrap;html=1;fontSize=10;fillColor=#dae8fc;strokeColor=#6c8ebf;" parent="1" vertex="1">
          <mxGeometry x="120" y="90" width="60" height="30" as="geometry" />
        </mxCell>
        <mxCell id="ZBI6mGZKw_wungwZ691_-6" value="" style="endArrow=classic;html=1;rounded=0;exitX=1;exitY=0.5;exitDx=0;exitDy=0;" parent="1" source="ZBI6mGZKw_wungwZ691_-1" edge="1">
          <mxGeometry width="50" height="50" relative="1" as="geometry">
            <mxPoint x="155" y="160" as="sourcePoint" />
            <mxPoint x="120" y="105" as="targetPoint" />
          </mxGeometry>
        </mxCell>
        <mxCell id="ZBI6mGZKw_wungwZ691_-8" value="" style="endArrow=none;html=1;rounded=0;entryX=0.75;entryY=1;entryDx=0;entryDy=0;" parent="1" edge="1">
          <mxGeometry width="50" height="50" relative="1" as="geometry">
            <mxPoint x="150" y="140" as="sourcePoint" />
            <mxPoint x="150" y="120" as="targetPoint" />
          </mxGeometry>
        </mxCell>
        <mxCell id="ZBI6mGZKw_wungwZ691_-9" value="" style="endArrow=classic;html=1;rounded=0;entryX=0;entryY=0.5;entryDx=0;entryDy=0;" parent="1" target="ZBI6mGZKw_wungwZ691_-16" edge="1">
          <mxGeometry width="50" height="50" relative="1" as="geometry">
            <mxPoint x="150" y="140" as="sourcePoint" />
            <mxPoint x="190" y="140" as="targetPoint" />
          </mxGeometry>
        </mxCell>
        <mxCell id="ZBI6mGZKw_wungwZ691_-10" value="" style="endArrow=none;html=1;rounded=0;" parent="1" edge="1">
          <mxGeometry width="50" height="50" relative="1" as="geometry">
            <mxPoint x="150" y="90" as="sourcePoint" />
            <mxPoint x="150" y="70" as="targetPoint" />
          </mxGeometry>
        </mxCell>
        <mxCell id="ZBI6mGZKw_wungwZ691_-11" value="" style="endArrow=classic;html=1;rounded=0;entryX=0;entryY=0.5;entryDx=0;entryDy=0;" parent="1" target="ZBI6mGZKw_wungwZ691_-13" edge="1">
          <mxGeometry width="50" height="50" relative="1" as="geometry">
            <mxPoint x="150" y="70" as="sourcePoint" />
            <mxPoint x="190" y="70" as="targetPoint" />
          </mxGeometry>
        </mxCell>
        <mxCell id="ZBI6mGZKw_wungwZ691_-13" value="&lt;div&gt;$$x_f$$&lt;/div&gt;" style="rounded=1;whiteSpace=wrap;html=1;fontSize=10;fillColor=#d5e8d4;strokeColor=#82b366;" parent="1" vertex="1">
          <mxGeometry x="180" y="60" width="20" height="20" as="geometry" />
        </mxCell>
        <mxCell id="ZBI6mGZKw_wungwZ691_-16" value="&lt;div&gt;$$x_b$$&lt;/div&gt;" style="rounded=1;whiteSpace=wrap;html=1;fontSize=10;fillColor=#d5e8d4;strokeColor=#82b366;" parent="1" vertex="1">
          <mxGeometry x="180" y="130" width="20" height="20" as="geometry" />
        </mxCell>
        <mxCell id="ZBI6mGZKw_wungwZ691_-18" value="" style="endArrow=classic;html=1;rounded=0;" parent="1" edge="1">
          <mxGeometry width="50" height="50" relative="1" as="geometry">
            <mxPoint x="200" y="69.8" as="sourcePoint" />
            <mxPoint x="215" y="70" as="targetPoint" />
          </mxGeometry>
        </mxCell>
        <mxCell id="ZBI6mGZKw_wungwZ691_-21" value="&lt;div&gt;GRU&lt;/div&gt;" style="rounded=0;whiteSpace=wrap;html=1;fontSize=10;fillColor=#dae8fc;strokeColor=#6c8ebf;" parent="1" vertex="1">
          <mxGeometry x="215" y="60" width="40" height="20" as="geometry" />
        </mxCell>
        <mxCell id="ZBI6mGZKw_wungwZ691_-22" value="&lt;div&gt;GRU&lt;/div&gt;" style="rounded=0;whiteSpace=wrap;html=1;fontSize=10;fillColor=#dae8fc;strokeColor=#6c8ebf;" parent="1" vertex="1">
          <mxGeometry x="215" y="130" width="40" height="20" as="geometry" />
        </mxCell>
        <mxCell id="ZBI6mGZKw_wungwZ691_-23" value="" style="endArrow=classic;html=1;rounded=0;" parent="1" edge="1">
          <mxGeometry width="50" height="50" relative="1" as="geometry">
            <mxPoint x="200" y="139.8" as="sourcePoint" />
            <mxPoint x="215" y="140" as="targetPoint" />
          </mxGeometry>
        </mxCell>
        <mxCell id="ZBI6mGZKw_wungwZ691_-26" value="" style="endArrow=classic;html=1;rounded=0;" parent="1" edge="1">
          <mxGeometry width="50" height="50" relative="1" as="geometry">
            <mxPoint x="255" y="139.8" as="sourcePoint" />
            <mxPoint x="270" y="140" as="targetPoint" />
          </mxGeometry>
        </mxCell>
        <mxCell id="ZBI6mGZKw_wungwZ691_-27" value="" style="endArrow=classic;html=1;rounded=0;exitX=0.5;exitY=0;exitDx=0;exitDy=0;entryX=0.5;entryY=0;entryDx=0;entryDy=0;" parent="1" source="ZBI6mGZKw_wungwZ691_-16" target="ZBI6mGZKw_wungwZ691_-59" edge="1">
          <mxGeometry width="50" height="50" relative="1" as="geometry">
            <mxPoint x="260" y="130" as="sourcePoint" />
            <mxPoint x="290" y="150.00000000000006" as="targetPoint" />
            <Array as="points">
              <mxPoint x="190" y="110" />
              <mxPoint x="280" y="110" />
            </Array>
          </mxGeometry>
        </mxCell>
        <mxCell id="ZBI6mGZKw_wungwZ691_-29" value="" style="endArrow=classic;html=1;rounded=0;" parent="1" edge="1">
          <mxGeometry width="50" height="50" relative="1" as="geometry">
            <mxPoint x="290" y="139.89000000000001" as="sourcePoint" />
            <mxPoint x="305" y="140.09" as="targetPoint" />
          </mxGeometry>
        </mxCell>
        <mxCell id="ZBI6mGZKw_wungwZ691_-30" value="&lt;div&gt;$$x_b$$&lt;/div&gt;" style="rounded=1;whiteSpace=wrap;html=1;fontSize=10;fillColor=#d5e8d4;strokeColor=#82b366;" parent="1" vertex="1">
          <mxGeometry x="305" y="130" width="20" height="20" as="geometry" />
        </mxCell>
        <mxCell id="ZBI6mGZKw_wungwZ691_-31" value="&lt;div&gt;GRU&lt;/div&gt;" style="rounded=0;whiteSpace=wrap;html=1;fontSize=10;fillColor=#dae8fc;strokeColor=#6c8ebf;" parent="1" vertex="1">
          <mxGeometry x="340" y="130" width="40" height="20" as="geometry" />
        </mxCell>
        <mxCell id="ZBI6mGZKw_wungwZ691_-32" value="" style="endArrow=classic;html=1;rounded=0;" parent="1" edge="1">
          <mxGeometry width="50" height="50" relative="1" as="geometry">
            <mxPoint x="325" y="139.8" as="sourcePoint" />
            <mxPoint x="340" y="140" as="targetPoint" />
          </mxGeometry>
        </mxCell>
        <mxCell id="ZBI6mGZKw_wungwZ691_-34" value="" style="endArrow=classic;html=1;rounded=0;" parent="1" edge="1">
          <mxGeometry width="50" height="50" relative="1" as="geometry">
            <mxPoint x="380" y="139.8" as="sourcePoint" />
            <mxPoint x="395" y="140" as="targetPoint" />
          </mxGeometry>
        </mxCell>
        <mxCell id="ZBI6mGZKw_wungwZ691_-35" value="" style="endArrow=classic;html=1;rounded=0;exitX=0.5;exitY=0;exitDx=0;exitDy=0;entryX=0.5;entryY=0;entryDx=0;entryDy=0;" parent="1" source="ZBI6mGZKw_wungwZ691_-30" target="ZBI6mGZKw_wungwZ691_-62" edge="1">
          <mxGeometry width="50" height="50" relative="1" as="geometry">
            <mxPoint x="385" y="130" as="sourcePoint" />
            <mxPoint x="415" y="150.00000000000006" as="targetPoint" />
            <Array as="points">
              <mxPoint x="315" y="110" />
              <mxPoint x="405" y="110" />
            </Array>
          </mxGeometry>
        </mxCell>
        <mxCell id="ZBI6mGZKw_wungwZ691_-49" value="" style="endArrow=classic;html=1;rounded=0;" parent="1" edge="1">
          <mxGeometry width="50" height="50" relative="1" as="geometry">
            <mxPoint x="255" y="69.80000000000001" as="sourcePoint" />
            <mxPoint x="270" y="70" as="targetPoint" />
          </mxGeometry>
        </mxCell>
        <mxCell id="ZBI6mGZKw_wungwZ691_-50" value="" style="endArrow=classic;html=1;rounded=0;exitX=0.5;exitY=1;exitDx=0;exitDy=0;entryX=0.5;entryY=1;entryDx=0;entryDy=0;" parent="1" target="ZBI6mGZKw_wungwZ691_-60" edge="1">
          <mxGeometry width="50" height="50" relative="1" as="geometry">
            <mxPoint x="190" y="80" as="sourcePoint" />
            <mxPoint x="290" y="79.99999999999994" as="targetPoint" />
            <Array as="points">
              <mxPoint x="190" y="100" />
              <mxPoint x="280" y="100" />
            </Array>
          </mxGeometry>
        </mxCell>
        <mxCell id="ZBI6mGZKw_wungwZ691_-51" value="" style="endArrow=classic;html=1;rounded=0;" parent="1" edge="1">
          <mxGeometry width="50" height="50" relative="1" as="geometry">
            <mxPoint x="290" y="69.89000000000001" as="sourcePoint" />
            <mxPoint x="305" y="70.09" as="targetPoint" />
          </mxGeometry>
        </mxCell>
        <mxCell id="ZBI6mGZKw_wungwZ691_-52" value="&lt;div&gt;$$x_f$$&lt;/div&gt;" style="rounded=1;whiteSpace=wrap;html=1;fontSize=10;fillColor=#d5e8d4;strokeColor=#82b366;" parent="1" vertex="1">
          <mxGeometry x="305" y="60" width="20" height="20" as="geometry" />
        </mxCell>
        <mxCell id="ZBI6mGZKw_wungwZ691_-53" value="&lt;div&gt;GRU&lt;/div&gt;" style="rounded=0;whiteSpace=wrap;html=1;fontSize=10;fillColor=#dae8fc;strokeColor=#6c8ebf;" parent="1" vertex="1">
          <mxGeometry x="340" y="60" width="40" height="20" as="geometry" />
        </mxCell>
        <mxCell id="ZBI6mGZKw_wungwZ691_-54" value="" style="endArrow=classic;html=1;rounded=0;" parent="1" edge="1">
          <mxGeometry width="50" height="50" relative="1" as="geometry">
            <mxPoint x="325" y="69.80000000000001" as="sourcePoint" />
            <mxPoint x="340" y="70" as="targetPoint" />
          </mxGeometry>
        </mxCell>
        <mxCell id="ZBI6mGZKw_wungwZ691_-56" value="" style="endArrow=classic;html=1;rounded=0;" parent="1" edge="1">
          <mxGeometry width="50" height="50" relative="1" as="geometry">
            <mxPoint x="380" y="69.76" as="sourcePoint" />
            <mxPoint x="395" y="70" as="targetPoint" />
          </mxGeometry>
        </mxCell>
        <mxCell id="ZBI6mGZKw_wungwZ691_-57" value="" style="endArrow=classic;html=1;rounded=0;exitX=0.5;exitY=1;exitDx=0;exitDy=0;entryX=0.5;entryY=1;entryDx=0;entryDy=0;" parent="1" source="ZBI6mGZKw_wungwZ691_-52" target="ZBI6mGZKw_wungwZ691_-61" edge="1">
          <mxGeometry width="50" height="50" relative="1" as="geometry">
            <mxPoint x="385" y="60" as="sourcePoint" />
            <mxPoint x="415" y="79.99999999999994" as="targetPoint" />
            <Array as="points">
              <mxPoint x="315" y="100" />
              <mxPoint x="405" y="100" />
            </Array>
          </mxGeometry>
        </mxCell>
        <mxCell id="ZBI6mGZKw_wungwZ691_-59" value="+" style="ellipse;whiteSpace=wrap;html=1;aspect=fixed;fillColor=#f8cecc;strokeColor=#b85450;" parent="1" vertex="1">
          <mxGeometry x="270" y="130" width="20" height="20" as="geometry" />
        </mxCell>
        <mxCell id="ZBI6mGZKw_wungwZ691_-60" value="+" style="ellipse;whiteSpace=wrap;html=1;aspect=fixed;fillColor=#f8cecc;strokeColor=#b85450;" parent="1" vertex="1">
          <mxGeometry x="270" y="60" width="20" height="20" as="geometry" />
        </mxCell>
        <mxCell id="ZBI6mGZKw_wungwZ691_-61" value="+" style="ellipse;whiteSpace=wrap;html=1;aspect=fixed;fillColor=#f8cecc;strokeColor=#b85450;" parent="1" vertex="1">
          <mxGeometry x="395" y="60" width="20" height="20" as="geometry" />
        </mxCell>
        <mxCell id="ZBI6mGZKw_wungwZ691_-62" value="+" style="ellipse;whiteSpace=wrap;html=1;aspect=fixed;fillColor=#f8cecc;strokeColor=#b85450;" parent="1" vertex="1">
          <mxGeometry x="395" y="130" width="20" height="20" as="geometry" />
        </mxCell>
        <mxCell id="ZBI6mGZKw_wungwZ691_-63" value="concat" style="rounded=0;whiteSpace=wrap;html=1;fontSize=10;fillColor=#f8cecc;strokeColor=#b85450;" parent="1" vertex="1">
          <mxGeometry x="415" y="95" width="40" height="20" as="geometry" />
        </mxCell>
        <mxCell id="ZBI6mGZKw_wungwZ691_-64" value="" style="endArrow=classic;html=1;rounded=0;entryX=0.5;entryY=1;entryDx=0;entryDy=0;exitX=1;exitY=0.5;exitDx=0;exitDy=0;" parent="1" source="ZBI6mGZKw_wungwZ691_-62" target="ZBI6mGZKw_wungwZ691_-63" edge="1">
          <mxGeometry width="50" height="50" relative="1" as="geometry">
            <mxPoint x="425" y="140" as="sourcePoint" />
            <mxPoint x="475" y="90" as="targetPoint" />
          </mxGeometry>
        </mxCell>
        <mxCell id="ZBI6mGZKw_wungwZ691_-65" value="" style="endArrow=classic;html=1;rounded=0;exitX=1;exitY=0.5;exitDx=0;exitDy=0;entryX=0.5;entryY=0;entryDx=0;entryDy=0;" parent="1" source="ZBI6mGZKw_wungwZ691_-61" target="ZBI6mGZKw_wungwZ691_-63" edge="1">
          <mxGeometry width="50" height="50" relative="1" as="geometry">
            <mxPoint x="415" y="150" as="sourcePoint" />
            <mxPoint x="455" y="95" as="targetPoint" />
          </mxGeometry>
        </mxCell>
        <mxCell id="ZBI6mGZKw_wungwZ691_-71" value="" style="endArrow=classic;html=1;rounded=0;" parent="1" edge="1">
          <mxGeometry width="50" height="50" relative="1" as="geometry">
            <mxPoint x="455" y="104.83" as="sourcePoint" />
            <mxPoint x="470" y="105" as="targetPoint" />
          </mxGeometry>
        </mxCell>
        <mxCell id="ZBI6mGZKw_wungwZ691_-73" value="Affine" style="rounded=0;whiteSpace=wrap;html=1;fontSize=10;fillColor=#dae8fc;strokeColor=#6c8ebf;" parent="1" vertex="1">
          <mxGeometry x="470" y="95" width="40" height="20" as="geometry" />
        </mxCell>
        <mxCell id="ZBI6mGZKw_wungwZ691_-74" value="&lt;div&gt;&lt;i&gt;Per-character&lt;/i&gt;&lt;/div&gt;&lt;div&gt;&lt;i&gt;token predictions&lt;br&gt;&lt;/i&gt;&lt;/div&gt;" style="rounded=1;whiteSpace=wrap;html=1;fontSize=10;fillColor=#cdeb8b;strokeColor=#36393d;" parent="1" vertex="1">
          <mxGeometry x="525" y="87.5" width="80" height="35" as="geometry" />
        </mxCell>
        <mxCell id="ZBI6mGZKw_wungwZ691_-75" value="" style="endArrow=classic;html=1;rounded=0;" parent="1" edge="1">
          <mxGeometry width="50" height="50" relative="1" as="geometry">
            <mxPoint x="510" y="104.83" as="sourcePoint" />
            <mxPoint x="525" y="105" as="targetPoint" />
          </mxGeometry>
        </mxCell>
        <mxCell id="ZBI6mGZKw_wungwZ691_-78" value="&lt;font style=&quot;font-size: 8px;&quot;&gt;Forward sequence&lt;br&gt;&lt;/font&gt;" style="text;html=1;strokeColor=none;fillColor=none;align=center;verticalAlign=middle;whiteSpace=wrap;rounded=0;" parent="1" vertex="1">
          <mxGeometry x="150" y="45" width="80" height="10" as="geometry" />
        </mxCell>
        <mxCell id="ZBI6mGZKw_wungwZ691_-79" value="&lt;font style=&quot;font-size: 8px;&quot;&gt;Backward sequence&lt;br&gt;&lt;/font&gt;" style="text;html=1;strokeColor=none;fillColor=none;align=center;verticalAlign=middle;whiteSpace=wrap;rounded=0;" parent="1" vertex="1">
          <mxGeometry x="150" y="155" width="80" height="10" as="geometry" />
        </mxCell>
      </root>
    </mxGraphModel>
  </diagram>
</mxfile>
